<svg width="319" height="59" viewBox="0 0 319 59" fill="none" xmlns="http://www.w3.org/2000/svg">
<rect width="319" height="59" rx="10" fill="#1A202C"/>
<path d="M58.82 39V25.112H61.984L62.264 27.464C62.6933 26.6427 63.3093 25.9893 64.112 25.504C64.9333 25.0187 65.8947 24.776 66.996 24.776C68.7133 24.776 70.048 25.3173 71 26.4C71.952 27.4827 72.428 29.0693 72.428 31.16V39H68.844V31.496C68.844 30.3013 68.6013 29.3867 68.116 28.752C67.6307 28.1173 66.8747 27.8 65.848 27.8C64.84 27.8 64.0093 28.1547 63.356 28.864C62.7213 29.5733 62.404 30.5627 62.404 31.832V39H58.82ZM81.0632 39.336C79.3272 39.336 77.9832 38.7947 77.0312 37.712C76.0978 36.6293 75.6312 35.0427 75.6312 32.952V25.112H79.1872V32.616C79.1872 33.8107 79.4298 34.7253 79.9152 35.36C80.4005 35.9947 81.1658 36.312 82.2112 36.312C83.2005 36.312 84.0125 35.9573 84.6472 35.248C85.3005 34.5387 85.6272 33.5493 85.6272 32.28V25.112H89.2112V39H86.0472L85.7672 36.648C85.3378 37.4693 84.7125 38.1227 83.8912 38.608C83.0885 39.0933 82.1458 39.336 81.0632 39.336ZM91.5743 39L96.6143 32.056L91.5743 25.112H95.4103L98.9383 30.04L102.438 25.112H106.302L101.234 32.056L106.302 39H102.438L98.9383 34.072L95.4103 39H91.5743ZM114.774 39C113.318 39 112.151 38.6453 111.274 37.936C110.396 37.2267 109.958 35.9667 109.958 34.156V28.108H107.578V25.112H109.958L110.378 21.388H113.542V25.112H117.294V28.108H113.542V34.184C113.542 34.856 113.682 35.3227 113.962 35.584C114.26 35.8267 114.764 35.948 115.474 35.948H117.21V39H114.774ZM119.195 42.108L126.195 17.244H129.695L122.667 42.108H119.195Z" fill="white"/>
<path d="M138.036 34.856C137.364 34.856 136.739 34.7813 136.16 34.632L135.124 35.668C135.441 35.836 135.871 35.976 136.412 36.088C136.953 36.2 137.831 36.312 139.044 36.424C140.892 36.592 142.236 37.0307 143.076 37.74C143.916 38.4493 144.336 39.4293 144.336 40.68C144.336 41.5013 144.112 42.276 143.664 43.004C143.216 43.7507 142.525 44.348 141.592 44.796C140.659 45.2627 139.464 45.496 138.008 45.496C136.029 45.496 134.433 45.1227 133.22 44.376C132.007 43.648 131.4 42.5467 131.4 41.072C131.4 39.8213 132.007 38.7387 133.22 37.824C132.847 37.656 132.52 37.4787 132.24 37.292C131.979 37.1053 131.745 36.9093 131.54 36.704V36.06L133.976 33.484C132.893 32.532 132.352 31.3093 132.352 29.816C132.352 28.8827 132.576 28.0333 133.024 27.268C133.491 26.5027 134.144 25.896 134.984 25.448C135.824 25 136.841 24.776 138.036 24.776C138.82 24.776 139.548 24.888 140.22 25.112H145.484V27.296L143.104 27.464C143.477 28.1733 143.664 28.9573 143.664 29.816C143.664 30.7493 143.44 31.5987 142.992 32.364C142.544 33.1293 141.891 33.736 141.032 34.184C140.192 34.632 139.193 34.856 138.036 34.856ZM138.036 32.112C138.764 32.112 139.361 31.916 139.828 31.524C140.313 31.132 140.556 30.572 140.556 29.844C140.556 29.116 140.313 28.556 139.828 28.164C139.361 27.772 138.764 27.576 138.036 27.576C137.271 27.576 136.655 27.772 136.188 28.164C135.721 28.556 135.488 29.116 135.488 29.844C135.488 30.572 135.721 31.132 136.188 31.524C136.655 31.916 137.271 32.112 138.036 32.112ZM134.676 40.708C134.676 41.3987 134.993 41.912 135.628 42.248C136.281 42.6027 137.075 42.78 138.008 42.78C138.904 42.78 139.632 42.5933 140.192 42.22C140.752 41.8653 141.032 41.38 141.032 40.764C141.032 40.26 140.845 39.84 140.472 39.504C140.117 39.168 139.399 38.9627 138.316 38.888C137.551 38.832 136.841 38.748 136.188 38.636C135.647 38.9347 135.255 39.2613 135.012 39.616C134.788 39.9707 134.676 40.3347 134.676 40.708ZM154.214 39.336C152.87 39.336 151.657 39.028 150.574 38.412C149.51 37.796 148.661 36.9467 148.026 35.864C147.41 34.7627 147.102 33.4933 147.102 32.056C147.102 30.6187 147.42 29.3587 148.054 28.276C148.689 27.1747 149.538 26.316 150.602 25.7C151.685 25.084 152.898 24.776 154.242 24.776C155.568 24.776 156.762 25.084 157.826 25.7C158.909 26.316 159.758 27.1747 160.374 28.276C161.009 29.3587 161.326 30.6187 161.326 32.056C161.326 33.4933 161.009 34.7627 160.374 35.864C159.758 36.9467 158.909 37.796 157.826 38.412C156.744 39.028 155.54 39.336 154.214 39.336ZM154.214 36.228C155.148 36.228 155.96 35.8827 156.65 35.192C157.341 34.4827 157.686 33.4373 157.686 32.056C157.686 30.6747 157.341 29.6387 156.65 28.948C155.96 28.2387 155.157 27.884 154.242 27.884C153.29 27.884 152.469 28.2387 151.778 28.948C151.106 29.6387 150.77 30.6747 150.77 32.056C150.77 33.4373 151.106 34.4827 151.778 35.192C152.469 35.8827 153.281 36.228 154.214 36.228ZM171.195 39.336C169.851 39.336 168.638 39.028 167.555 38.412C166.491 37.796 165.642 36.9467 165.007 35.864C164.391 34.7627 164.083 33.4933 164.083 32.056C164.083 30.6187 164.4 29.3587 165.035 28.276C165.67 27.1747 166.519 26.316 167.583 25.7C168.666 25.084 169.879 24.776 171.223 24.776C172.548 24.776 173.743 25.084 174.807 25.7C175.89 26.316 176.739 27.1747 177.355 28.276C177.99 29.3587 178.307 30.6187 178.307 32.056C178.307 33.4933 177.99 34.7627 177.355 35.864C176.739 36.9467 175.89 37.796 174.807 38.412C173.724 39.028 172.52 39.336 171.195 39.336ZM171.195 36.228C172.128 36.228 172.94 35.8827 173.631 35.192C174.322 34.4827 174.667 33.4373 174.667 32.056C174.667 30.6747 174.322 29.6387 173.631 28.948C172.94 28.2387 172.138 27.884 171.223 27.884C170.271 27.884 169.45 28.2387 168.759 28.948C168.087 29.6387 167.751 30.6747 167.751 32.056C167.751 33.4373 168.087 34.4827 168.759 35.192C169.45 35.8827 170.262 36.228 171.195 36.228ZM186.516 34.856C185.844 34.856 185.219 34.7813 184.64 34.632L183.604 35.668C183.922 35.836 184.351 35.976 184.892 36.088C185.434 36.2 186.311 36.312 187.524 36.424C189.372 36.592 190.716 37.0307 191.556 37.74C192.396 38.4493 192.816 39.4293 192.816 40.68C192.816 41.5013 192.592 42.276 192.144 43.004C191.696 43.7507 191.006 44.348 190.072 44.796C189.139 45.2627 187.944 45.496 186.488 45.496C184.51 45.496 182.914 45.1227 181.7 44.376C180.487 43.648 179.88 42.5467 179.88 41.072C179.88 39.8213 180.487 38.7387 181.7 37.824C181.327 37.656 181 37.4787 180.72 37.292C180.459 37.1053 180.226 36.9093 180.02 36.704V36.06L182.456 33.484C181.374 32.532 180.832 31.3093 180.832 29.816C180.832 28.8827 181.056 28.0333 181.504 27.268C181.971 26.5027 182.624 25.896 183.464 25.448C184.304 25 185.322 24.776 186.516 24.776C187.3 24.776 188.028 24.888 188.7 25.112H193.964V27.296L191.584 27.464C191.958 28.1733 192.144 28.9573 192.144 29.816C192.144 30.7493 191.92 31.5987 191.472 32.364C191.024 33.1293 190.371 33.736 189.512 34.184C188.672 34.632 187.674 34.856 186.516 34.856ZM186.516 32.112C187.244 32.112 187.842 31.916 188.308 31.524C188.794 31.132 189.036 30.572 189.036 29.844C189.036 29.116 188.794 28.556 188.308 28.164C187.842 27.772 187.244 27.576 186.516 27.576C185.751 27.576 185.135 27.772 184.668 28.164C184.202 28.556 183.968 29.116 183.968 29.844C183.968 30.572 184.202 31.132 184.668 31.524C185.135 31.916 185.751 32.112 186.516 32.112ZM183.156 40.708C183.156 41.3987 183.474 41.912 184.108 42.248C184.762 42.6027 185.555 42.78 186.488 42.78C187.384 42.78 188.112 42.5933 188.672 42.22C189.232 41.8653 189.512 41.38 189.512 40.764C189.512 40.26 189.326 39.84 188.952 39.504C188.598 39.168 187.879 38.9627 186.796 38.888C186.031 38.832 185.322 38.748 184.668 38.636C184.127 38.9347 183.735 39.2613 183.492 39.616C183.268 39.9707 183.156 40.3347 183.156 40.708ZM196.578 39V18.84H200.162V39H196.578ZM210.572 39.336C209.172 39.336 207.931 39.0373 206.848 38.44C205.765 37.8427 204.916 37.0027 204.3 35.92C203.684 34.8373 203.376 33.5867 203.376 32.168C203.376 30.7307 203.675 29.452 204.272 28.332C204.888 27.212 205.728 26.344 206.792 25.728C207.875 25.0933 209.144 24.776 210.6 24.776C211.963 24.776 213.167 25.0747 214.212 25.672C215.257 26.2693 216.069 27.0907 216.648 28.136C217.245 29.1627 217.544 30.3107 217.544 31.58C217.544 31.7853 217.535 32 217.516 32.224C217.516 32.448 217.507 32.6813 217.488 32.924H206.932C207.007 34.0067 207.38 34.856 208.052 35.472C208.743 36.088 209.573 36.396 210.544 36.396C211.272 36.396 211.879 36.2373 212.364 35.92C212.868 35.584 213.241 35.1547 213.484 34.632H217.124C216.863 35.5093 216.424 36.312 215.808 37.04C215.211 37.7493 214.464 38.3093 213.568 38.72C212.691 39.1307 211.692 39.336 210.572 39.336ZM210.6 27.688C209.723 27.688 208.948 27.94 208.276 28.444C207.604 28.9293 207.175 29.676 206.988 30.684H213.904C213.848 29.7693 213.512 29.0413 212.896 28.5C212.28 27.9587 211.515 27.688 210.6 27.688ZM220.25 32.392V29.396H231.982V32.392H220.25ZM235.968 39V28.108H234.064V25.112H235.968V23.488C235.968 21.808 236.388 20.6133 237.228 19.904C238.087 19.1947 239.244 18.84 240.7 18.84H242.24V21.892H241.26C240.644 21.892 240.205 22.0133 239.944 22.256C239.683 22.4987 239.552 22.9093 239.552 23.488V25.112H242.548V28.108H239.552V39H235.968ZM251.504 39.336C250.16 39.336 248.946 39.028 247.864 38.412C246.8 37.796 245.95 36.9467 245.316 35.864C244.7 34.7627 244.392 33.4933 244.392 32.056C244.392 30.6187 244.709 29.3587 245.344 28.276C245.978 27.1747 246.828 26.316 247.892 25.7C248.974 25.084 250.188 24.776 251.532 24.776C252.857 24.776 254.052 25.084 255.116 25.7C256.198 26.316 257.048 27.1747 257.664 28.276C258.298 29.3587 258.616 30.6187 258.616 32.056C258.616 33.4933 258.298 34.7627 257.664 35.864C257.048 36.9467 256.198 37.796 255.116 38.412C254.033 39.028 252.829 39.336 251.504 39.336ZM251.504 36.228C252.437 36.228 253.249 35.8827 253.94 35.192C254.63 34.4827 254.976 33.4373 254.976 32.056C254.976 30.6747 254.63 29.6387 253.94 28.948C253.249 28.2387 252.446 27.884 251.532 27.884C250.58 27.884 249.758 28.2387 249.068 28.948C248.396 29.6387 248.06 30.6747 248.06 32.056C248.06 33.4373 248.396 34.4827 249.068 35.192C249.758 35.8827 250.57 36.228 251.504 36.228ZM261.82 39V25.112H264.984L265.264 27.464C265.693 26.6427 266.309 25.9893 267.112 25.504C267.933 25.0187 268.895 24.776 269.996 24.776C271.713 24.776 273.048 25.3173 274 26.4C274.952 27.4827 275.428 29.0693 275.428 31.16V39H271.844V31.496C271.844 30.3013 271.601 29.3867 271.116 28.752C270.631 28.1173 269.875 27.8 268.848 27.8C267.84 27.8 267.009 28.1547 266.356 28.864C265.721 29.5733 265.404 30.5627 265.404 31.832V39H261.82ZM285.043 39C283.587 39 282.42 38.6453 281.543 37.936C280.666 37.2267 280.227 35.9667 280.227 34.156V28.108H277.847V25.112H280.227L280.647 21.388H283.811V25.112H287.563V28.108H283.811V34.184C283.811 34.856 283.951 35.3227 284.231 35.584C284.53 35.8267 285.034 35.948 285.743 35.948H287.479V39H285.043ZM296.38 39.336C295.148 39.336 294.066 39.14 293.132 38.748C292.199 38.3373 291.452 37.7773 290.892 37.068C290.332 36.3587 289.996 35.5373 289.884 34.604H293.496C293.608 35.1453 293.907 35.612 294.392 36.004C294.896 36.3773 295.54 36.564 296.324 36.564C297.108 36.564 297.678 36.4053 298.032 36.088C298.406 35.7707 298.592 35.4067 298.592 34.996C298.592 34.3987 298.331 33.9973 297.808 33.792C297.286 33.568 296.558 33.3533 295.624 33.148C295.027 33.0173 294.42 32.8587 293.804 32.672C293.188 32.4853 292.619 32.252 292.096 31.972C291.592 31.6733 291.182 31.3 290.864 30.852C290.547 30.3853 290.388 29.816 290.388 29.144C290.388 27.912 290.874 26.876 291.844 26.036C292.834 25.196 294.215 24.776 295.988 24.776C297.631 24.776 298.938 25.1587 299.908 25.924C300.898 26.6893 301.486 27.744 301.672 29.088H298.284C298.079 28.0613 297.304 27.548 295.96 27.548C295.288 27.548 294.766 27.6787 294.392 27.94C294.038 28.2013 293.86 28.528 293.86 28.92C293.86 29.3307 294.131 29.6573 294.672 29.9C295.214 30.1427 295.932 30.3667 296.828 30.572C297.799 30.796 298.686 31.048 299.488 31.328C300.31 31.5893 300.963 31.9907 301.448 32.532C301.934 33.0547 302.176 33.8107 302.176 34.8C302.195 35.6587 301.971 36.4333 301.504 37.124C301.038 37.8147 300.366 38.356 299.488 38.748C298.611 39.14 297.575 39.336 296.38 39.336Z" fill="#1A73E8"/>
<rect x="15" y="13" width="32" height="32" rx="3.84" fill="#1A73E8"/>
<path d="M26.4667 21.2667H28.5822V36.7333H26.4667V21.2667Z" fill="white"/>
<path d="M26.4667 23.2379V21.2667L35.5333 21.2667V23.2379L26.4667 23.2379Z" fill="white"/>
<path d="M28.5822 30.2131V28.2418H34.7778V30.2131H28.5822Z" fill="white"/>
</svg>
