<svg width="1280" height="640" viewBox="0 0 1280 640" fill="none" xmlns="http://www.w3.org/2000/svg">
<rect width="1280" height="640" fill="#1A202C"/>
<g clip-path="url(#clip0)">
<path d="M95.5842 67.2694L92.8465 72.2569L83.4835 55.1954L54.7408 107.565H74.2015C74.2015 110.319 76.324 112.552 78.9423 112.552H54.7408C53.0472 112.552 51.4825 111.601 50.6359 110.058C49.7892 108.515 49.7893 106.614 50.6361 105.071L79.3788 52.7016C80.2256 51.1584 81.7907 50.2077 83.4845 50.2077C85.1782 50.2077 86.7433 51.1584 87.5902 52.7016L95.5842 67.2694Z" fill="#00C58E"/>
<path d="M116.333 105.071L98.322 72.2569L95.5842 67.2693L92.8464 72.2569L74.8375 105.071C73.9907 106.614 73.9907 108.515 74.8373 110.058C75.6839 111.601 77.2487 112.552 78.9422 112.552H112.222C113.916 112.552 115.481 111.602 116.329 110.059C117.176 108.516 117.176 106.614 116.329 105.071H116.333ZM78.9422 107.564L95.5842 77.2444L112.222 107.564H78.9422L78.9422 107.564Z" fill="white"/>
<path d="M129.21 110.058C128.363 111.601 126.799 112.552 125.105 112.552H112.222C114.84 112.552 116.963 110.319 116.963 107.565H125.095L102.02 65.5175L98.322 72.2569L95.5842 67.2694L97.9151 63.0238C98.7619 61.4805 100.327 60.5298 102.021 60.5298C103.714 60.5298 105.28 61.4805 106.126 63.0238L129.21 105.071C130.057 106.614 130.057 108.515 129.21 110.058Z" fill="#108775"/>
</g>
<g clip-path="url(#clip1)">
<path d="M1195.58 544.269L1192.85 549.257L1183.48 532.195L1154.74 584.564H1174.2C1174.2 587.319 1176.32 589.552 1178.94 589.552H1154.74C1153.05 589.552 1151.48 588.601 1150.64 587.058C1149.79 585.515 1149.79 583.614 1150.64 582.071L1179.38 529.702C1180.23 528.158 1181.79 527.208 1183.48 527.208C1185.18 527.208 1186.74 528.158 1187.59 529.702L1195.58 544.269Z" fill="#00C58E"/>
<path d="M1216.33 582.071L1198.32 549.257L1195.58 544.269L1192.85 549.257L1174.84 582.071C1173.99 583.614 1173.99 585.515 1174.84 587.058C1175.68 588.601 1177.25 589.552 1178.94 589.552H1212.22C1213.92 589.552 1215.48 588.602 1216.33 587.059C1217.18 585.515 1217.18 583.614 1216.33 582.071H1216.33ZM1178.94 584.564L1195.58 554.244L1212.22 584.564H1178.94L1178.94 584.564Z" fill="white"/>
<path d="M1229.21 587.058C1228.36 588.601 1226.8 589.552 1225.11 589.552H1212.22C1214.84 589.552 1216.96 587.319 1216.96 584.564H1225.1L1202.02 542.517L1198.32 549.257L1195.58 544.269L1197.92 540.024C1198.76 538.48 1200.33 537.53 1202.02 537.53C1203.71 537.53 1205.28 538.48 1206.13 540.024L1229.21 582.071C1230.06 583.614 1230.06 585.515 1229.21 587.058Z" fill="#108775"/>
</g>
<rect x="50" y="510" width="80" height="80" rx="12" fill="#1A73E8"/>
<path d="M78.6667 530.667H83.9555V569.333H78.6667V530.667Z" fill="white"/>
<path d="M78.6667 535.595V530.667L101.333 530.667V535.595L78.6667 535.595Z" fill="white"/>
<path d="M83.9555 553.033V548.105H99.4444V553.033H83.9555Z" fill="white"/>
<rect x="1150" y="50" width="80" height="80" rx="12" fill="#1A73E8"/>
<path d="M1178.67 70.6667H1183.96V109.333H1178.67V70.6667Z" fill="white"/>
<path d="M1178.67 75.5948V70.6667L1201.33 70.6667V75.5948L1178.67 75.5948Z" fill="white"/>
<path d="M1183.96 93.0327V88.1046H1199.44V93.0327H1183.96Z" fill="white"/>
<path d="M380.259 301V271.24H387.039L387.639 276.28C388.559 274.52 389.879 273.12 391.599 272.08C393.359 271.04 395.419 270.52 397.779 270.52C401.459 270.52 404.319 271.68 406.359 274C408.399 276.32 409.419 279.72 409.419 284.2V301H401.739V284.92C401.739 282.36 401.219 280.4 400.179 279.04C399.139 277.68 397.519 277 395.319 277C393.159 277 391.379 277.76 389.979 279.28C388.619 280.8 387.939 282.92 387.939 285.64V301H380.259ZM427.923 301.72C424.203 301.72 421.323 300.56 419.283 298.24C417.283 295.92 416.283 292.52 416.283 288.04V271.24H423.903V287.32C423.903 289.88 424.423 291.84 425.463 293.2C426.503 294.56 428.143 295.24 430.383 295.24C432.503 295.24 434.243 294.48 435.603 292.96C437.003 291.44 437.703 289.32 437.703 286.6V271.24H445.383V301H438.603L438.003 295.96C437.083 297.72 435.743 299.12 433.983 300.16C432.263 301.2 430.243 301.72 427.923 301.72ZM450.447 301L461.247 286.12L450.447 271.24H458.667L466.227 281.8L473.727 271.24H482.007L471.147 286.12L482.007 301H473.727L466.227 290.44L458.667 301H450.447ZM500.16 301C497.04 301 494.54 300.24 492.66 298.72C490.78 297.2 489.84 294.5 489.84 290.62V277.66H484.74V271.24H489.84L490.74 263.26H497.52V271.24H505.56V277.66H497.52V290.68C497.52 292.12 497.82 293.12 498.42 293.68C499.06 294.2 500.14 294.46 501.66 294.46H505.38V301H500.16ZM509.634 307.66L524.634 254.38H532.134L517.074 307.66H509.634Z" fill="white"/>
<path d="M550.008 292.12C548.568 292.12 547.228 291.96 545.988 291.64L543.768 293.86C544.448 294.22 545.368 294.52 546.528 294.76C547.688 295 549.568 295.24 552.168 295.48C556.128 295.84 559.008 296.78 560.808 298.3C562.608 299.82 563.508 301.92 563.508 304.6C563.508 306.36 563.028 308.02 562.068 309.58C561.108 311.18 559.628 312.46 557.628 313.42C555.628 314.42 553.068 314.92 549.948 314.92C545.708 314.92 542.288 314.12 539.688 312.52C537.088 310.96 535.788 308.6 535.788 305.44C535.788 302.76 537.088 300.44 539.688 298.48C538.888 298.12 538.188 297.74 537.588 297.34C537.028 296.94 536.528 296.52 536.088 296.08V294.7L541.308 289.18C538.988 287.14 537.828 284.52 537.828 281.32C537.828 279.32 538.308 277.5 539.268 275.86C540.268 274.22 541.668 272.92 543.468 271.96C545.268 271 547.448 270.52 550.008 270.52C551.688 270.52 553.248 270.76 554.688 271.24H565.968V275.92L560.868 276.28C561.668 277.8 562.068 279.48 562.068 281.32C562.068 283.32 561.588 285.14 560.628 286.78C559.668 288.42 558.268 289.72 556.428 290.68C554.628 291.64 552.488 292.12 550.008 292.12ZM550.008 286.24C551.568 286.24 552.848 285.82 553.848 284.98C554.888 284.14 555.408 282.94 555.408 281.38C555.408 279.82 554.888 278.62 553.848 277.78C552.848 276.94 551.568 276.52 550.008 276.52C548.368 276.52 547.048 276.94 546.048 277.78C545.048 278.62 544.548 279.82 544.548 281.38C544.548 282.94 545.048 284.14 546.048 284.98C547.048 285.82 548.368 286.24 550.008 286.24ZM542.808 304.66C542.808 306.14 543.488 307.24 544.848 307.96C546.248 308.72 547.948 309.1 549.948 309.1C551.868 309.1 553.428 308.7 554.628 307.9C555.828 307.14 556.428 306.1 556.428 304.78C556.428 303.7 556.028 302.8 555.228 302.08C554.468 301.36 552.928 300.92 550.608 300.76C548.968 300.64 547.448 300.46 546.048 300.22C544.888 300.86 544.048 301.56 543.528 302.32C543.048 303.08 542.808 303.86 542.808 304.66ZM584.676 301.72C581.796 301.72 579.196 301.06 576.876 299.74C574.596 298.42 572.776 296.6 571.416 294.28C570.096 291.92 569.436 289.2 569.436 286.12C569.436 283.04 570.116 280.34 571.476 278.02C572.836 275.66 574.656 273.82 576.936 272.5C579.256 271.18 581.856 270.52 584.736 270.52C587.576 270.52 590.136 271.18 592.416 272.5C594.736 273.82 596.556 275.66 597.876 278.02C599.236 280.34 599.916 283.04 599.916 286.12C599.916 289.2 599.236 291.92 597.876 294.28C596.556 296.6 594.736 298.42 592.416 299.74C590.096 301.06 587.516 301.72 584.676 301.72ZM584.676 295.06C586.676 295.06 588.416 294.32 589.896 292.84C591.376 291.32 592.116 289.08 592.116 286.12C592.116 283.16 591.376 280.94 589.896 279.46C588.416 277.94 586.696 277.18 584.736 277.18C582.696 277.18 580.936 277.94 579.456 279.46C578.016 280.94 577.296 283.16 577.296 286.12C577.296 289.08 578.016 291.32 579.456 292.84C580.936 294.32 582.676 295.06 584.676 295.06ZM621.063 301.72C618.183 301.72 615.583 301.06 613.263 299.74C610.983 298.42 609.163 296.6 607.803 294.28C606.483 291.92 605.823 289.2 605.823 286.12C605.823 283.04 606.503 280.34 607.863 278.02C609.223 275.66 611.043 273.82 613.323 272.5C615.643 271.18 618.243 270.52 621.123 270.52C623.963 270.52 626.523 271.18 628.803 272.5C631.123 273.82 632.943 275.66 634.263 278.02C635.623 280.34 636.303 283.04 636.303 286.12C636.303 289.2 635.623 291.92 634.263 294.28C632.943 296.6 631.123 298.42 628.803 299.74C626.483 301.06 623.903 301.72 621.063 301.72ZM621.063 295.06C623.063 295.06 624.803 294.32 626.283 292.84C627.763 291.32 628.503 289.08 628.503 286.12C628.503 283.16 627.763 280.94 626.283 279.46C624.803 277.94 623.083 277.18 621.123 277.18C619.083 277.18 617.323 277.94 615.843 279.46C614.403 280.94 613.683 283.16 613.683 286.12C613.683 289.08 614.403 291.32 615.843 292.84C617.323 294.32 619.063 295.06 621.063 295.06ZM653.895 292.12C652.455 292.12 651.115 291.96 649.875 291.64L647.655 293.86C648.335 294.22 649.255 294.52 650.415 294.76C651.575 295 653.455 295.24 656.055 295.48C660.015 295.84 662.895 296.78 664.695 298.3C666.495 299.82 667.395 301.92 667.395 304.6C667.395 306.36 666.915 308.02 665.955 309.58C664.995 311.18 663.515 312.46 661.515 313.42C659.515 314.42 656.955 314.92 653.835 314.92C649.595 314.92 646.175 314.12 643.575 312.52C640.975 310.96 639.675 308.6 639.675 305.44C639.675 302.76 640.975 300.44 643.575 298.48C642.775 298.12 642.075 297.74 641.475 297.34C640.915 296.94 640.415 296.52 639.975 296.08V294.7L645.195 289.18C642.875 287.14 641.715 284.52 641.715 281.32C641.715 279.32 642.195 277.5 643.155 275.86C644.155 274.22 645.555 272.92 647.355 271.96C649.155 271 651.335 270.52 653.895 270.52C655.575 270.52 657.135 270.76 658.575 271.24H669.855V275.92L664.755 276.28C665.555 277.8 665.955 279.48 665.955 281.32C665.955 283.32 665.475 285.14 664.515 286.78C663.555 288.42 662.155 289.72 660.315 290.68C658.515 291.64 656.375 292.12 653.895 292.12ZM653.895 286.24C655.455 286.24 656.735 285.82 657.735 284.98C658.775 284.14 659.295 282.94 659.295 281.38C659.295 279.82 658.775 278.62 657.735 277.78C656.735 276.94 655.455 276.52 653.895 276.52C652.255 276.52 650.935 276.94 649.935 277.78C648.935 278.62 648.435 279.82 648.435 281.38C648.435 282.94 648.935 284.14 649.935 284.98C650.935 285.82 652.255 286.24 653.895 286.24ZM646.695 304.66C646.695 306.14 647.375 307.24 648.735 307.96C650.135 308.72 651.835 309.1 653.835 309.1C655.755 309.1 657.315 308.7 658.515 307.9C659.715 307.14 660.315 306.1 660.315 304.78C660.315 303.7 659.915 302.8 659.115 302.08C658.355 301.36 656.815 300.92 654.495 300.76C652.855 300.64 651.335 300.46 649.935 300.22C648.775 300.86 647.935 301.56 647.415 302.32C646.935 303.08 646.695 303.86 646.695 304.66ZM675.455 301V257.8H683.135V301H675.455ZM705.442 301.72C702.442 301.72 699.782 301.08 697.462 299.8C695.142 298.52 693.322 296.72 692.002 294.4C690.682 292.08 690.022 289.4 690.022 286.36C690.022 283.28 690.662 280.54 691.942 278.14C693.262 275.74 695.062 273.88 697.342 272.56C699.662 271.2 702.382 270.52 705.502 270.52C708.422 270.52 711.002 271.16 713.242 272.44C715.482 273.72 717.222 275.48 718.462 277.72C719.742 279.92 720.382 282.38 720.382 285.1C720.382 285.54 720.362 286 720.322 286.48C720.322 286.96 720.302 287.46 720.262 287.98H697.642C697.802 290.3 698.602 292.12 700.042 293.44C701.522 294.76 703.302 295.42 705.382 295.42C706.942 295.42 708.242 295.08 709.282 294.4C710.362 293.68 711.162 292.76 711.682 291.64H719.482C718.922 293.52 717.982 295.24 716.662 296.8C715.382 298.32 713.782 299.52 711.862 300.4C709.982 301.28 707.842 301.72 705.442 301.72ZM705.502 276.76C703.622 276.76 701.962 277.3 700.522 278.38C699.082 279.42 698.162 281.02 697.762 283.18H712.582C712.462 281.22 711.742 279.66 710.422 278.5C709.102 277.34 707.462 276.76 705.502 276.76ZM726.181 286.84V280.42H751.321V286.84H726.181ZM759.862 301V277.66H755.782V271.24H759.862V267.76C759.862 264.16 760.762 261.6 762.562 260.08C764.402 258.56 766.882 257.8 770.002 257.8H773.302V264.34H771.202C769.882 264.34 768.942 264.6 768.382 265.12C767.822 265.64 767.542 266.52 767.542 267.76V271.24H773.962V277.66H767.542V301H759.862ZM793.153 301.72C790.273 301.72 787.673 301.06 785.353 299.74C783.073 298.42 781.253 296.6 779.893 294.28C778.573 291.92 777.913 289.2 777.913 286.12C777.913 283.04 778.593 280.34 779.953 278.02C781.313 275.66 783.133 273.82 785.413 272.5C787.733 271.18 790.333 270.52 793.213 270.52C796.053 270.52 798.613 271.18 800.893 272.5C803.213 273.82 805.033 275.66 806.353 278.02C807.713 280.34 808.393 283.04 808.393 286.12C808.393 289.2 807.713 291.92 806.353 294.28C805.033 296.6 803.213 298.42 800.893 299.74C798.573 301.06 795.993 301.72 793.153 301.72ZM793.153 295.06C795.153 295.06 796.893 294.32 798.373 292.84C799.853 291.32 800.593 289.08 800.593 286.12C800.593 283.16 799.853 280.94 798.373 279.46C796.893 277.94 795.173 277.18 793.213 277.18C791.173 277.18 789.413 277.94 787.933 279.46C786.493 280.94 785.773 283.16 785.773 286.12C785.773 289.08 786.493 291.32 787.933 292.84C789.413 294.32 791.153 295.06 793.153 295.06ZM815.259 301V271.24H822.039L822.639 276.28C823.559 274.52 824.879 273.12 826.599 272.08C828.359 271.04 830.419 270.52 832.779 270.52C836.459 270.52 839.319 271.68 841.359 274C843.399 276.32 844.419 279.72 844.419 284.2V301H836.739V284.92C836.739 282.36 836.219 280.4 835.179 279.04C834.139 277.68 832.519 277 830.319 277C828.159 277 826.379 277.76 824.979 279.28C823.619 280.8 822.939 282.92 822.939 285.64V301H815.259ZM865.023 301C861.903 301 859.403 300.24 857.523 298.72C855.643 297.2 854.703 294.5 854.703 290.62V277.66H849.603V271.24H854.703L855.603 263.26H862.383V271.24H870.423V277.66H862.383V290.68C862.383 292.12 862.683 293.12 863.283 293.68C863.923 294.2 865.003 294.46 866.523 294.46H870.243V301H865.023ZM889.317 301.72C886.677 301.72 884.357 301.3 882.357 300.46C880.357 299.58 878.757 298.38 877.557 296.86C876.357 295.34 875.637 293.58 875.397 291.58H883.137C883.377 292.74 884.017 293.74 885.057 294.58C886.137 295.38 887.517 295.78 889.197 295.78C890.877 295.78 892.097 295.44 892.857 294.76C893.657 294.08 894.057 293.3 894.057 292.42C894.057 291.14 893.497 290.28 892.377 289.84C891.257 289.36 889.697 288.9 887.697 288.46C886.417 288.18 885.117 287.84 883.797 287.44C882.477 287.04 881.257 286.54 880.137 285.94C879.057 285.3 878.177 284.5 877.497 283.54C876.817 282.54 876.477 281.32 876.477 279.88C876.477 277.24 877.517 275.02 879.597 273.22C881.717 271.42 884.677 270.52 888.477 270.52C891.997 270.52 894.797 271.34 896.877 272.98C898.997 274.62 900.257 276.88 900.657 279.76H893.397C892.957 277.56 891.297 276.46 888.417 276.46C886.977 276.46 885.857 276.74 885.057 277.3C884.297 277.86 883.917 278.56 883.917 279.4C883.917 280.28 884.497 280.98 885.657 281.5C886.817 282.02 888.357 282.5 890.277 282.94C892.357 283.42 894.257 283.96 895.977 284.56C897.737 285.12 899.137 285.98 900.177 287.14C901.217 288.26 901.737 289.88 901.737 292C901.777 293.84 901.297 295.5 900.297 296.98C899.297 298.46 897.857 299.62 895.977 300.46C894.097 301.3 891.877 301.72 889.317 301.72Z" fill="#1A73E8"/>
<g filter="url(#filter0_i)">
<path d="M379.973 360.48C377.359 360.48 375.066 359.88 373.093 358.68C371.119 357.453 369.586 355.76 368.493 353.6C367.399 351.413 366.853 348.893 366.853 346.04C366.853 343.187 367.399 340.667 368.493 338.48C369.613 336.293 371.186 334.587 373.213 333.36C375.266 332.133 377.679 331.52 380.453 331.52C383.599 331.52 386.213 332.28 388.293 333.8C390.399 335.32 391.759 337.413 392.373 340.08H388.493C388.119 338.4 387.226 337.067 385.813 336.08C384.426 335.093 382.639 334.6 380.453 334.6C378.399 334.6 376.613 335.067 375.093 336C373.573 336.907 372.386 338.213 371.533 339.92C370.706 341.627 370.293 343.667 370.293 346.04C370.293 348.413 370.706 350.453 371.533 352.16C372.359 353.867 373.506 355.187 374.973 356.12C376.439 357.027 378.146 357.48 380.093 357.48C383.079 357.48 385.333 356.613 386.853 354.88C388.373 353.12 389.239 350.72 389.453 347.68H381.373V345.04H392.893V360H389.813L389.533 355.4C388.519 357.027 387.279 358.28 385.813 359.16C384.346 360.04 382.399 360.48 379.973 360.48ZM407.046 360.48C405.179 360.48 403.499 360.053 402.006 359.2C400.513 358.347 399.326 357.147 398.446 355.6C397.593 354.027 397.166 352.187 397.166 350.08C397.166 347.973 397.606 346.147 398.486 344.6C399.366 343.027 400.553 341.813 402.046 340.96C403.566 340.107 405.259 339.68 407.126 339.68C408.993 339.68 410.673 340.107 412.166 340.96C413.659 341.813 414.833 343.027 415.686 344.6C416.566 346.147 417.006 347.973 417.006 350.08C417.006 352.187 416.566 354.027 415.686 355.6C414.806 357.147 413.606 358.347 412.086 359.2C410.593 360.053 408.913 360.48 407.046 360.48ZM407.046 357.6C408.193 357.6 409.259 357.32 410.246 356.76C411.233 356.2 412.033 355.36 412.646 354.24C413.259 353.12 413.566 351.733 413.566 350.08C413.566 348.427 413.259 347.04 412.646 345.92C412.059 344.8 411.273 343.96 410.286 343.4C409.299 342.84 408.246 342.56 407.126 342.56C405.979 342.56 404.913 342.84 403.926 343.4C402.939 343.96 402.139 344.8 401.526 345.92C400.913 347.04 400.606 348.427 400.606 350.08C400.606 351.733 400.913 353.12 401.526 354.24C402.139 355.36 402.926 356.2 403.886 356.76C404.873 357.32 405.926 357.6 407.046 357.6ZM430.718 360.48C428.851 360.48 427.171 360.053 425.678 359.2C424.185 358.347 422.998 357.147 422.118 355.6C421.265 354.027 420.838 352.187 420.838 350.08C420.838 347.973 421.278 346.147 422.158 344.6C423.038 343.027 424.225 341.813 425.718 340.96C427.238 340.107 428.931 339.68 430.798 339.68C432.665 339.68 434.345 340.107 435.838 340.96C437.331 341.813 438.505 343.027 439.358 344.6C440.238 346.147 440.678 347.973 440.678 350.08C440.678 352.187 440.238 354.027 439.358 355.6C438.478 357.147 437.278 358.347 435.758 359.2C434.265 360.053 432.585 360.48 430.718 360.48ZM430.718 357.6C431.865 357.6 432.931 357.32 433.918 356.76C434.905 356.2 435.705 355.36 436.318 354.24C436.931 353.12 437.238 351.733 437.238 350.08C437.238 348.427 436.931 347.04 436.318 345.92C435.731 344.8 434.945 343.96 433.958 343.4C432.971 342.84 431.918 342.56 430.798 342.56C429.651 342.56 428.585 342.84 427.598 343.4C426.611 343.96 425.811 344.8 425.198 345.92C424.585 347.04 424.278 348.427 424.278 350.08C424.278 351.733 424.585 353.12 425.198 354.24C425.811 355.36 426.598 356.2 427.558 356.76C428.545 357.32 429.598 357.6 430.718 357.6ZM452.33 353.76C451.21 353.76 450.184 353.613 449.25 353.32L447.25 355.2C447.544 355.413 447.904 355.6 448.33 355.76C448.784 355.893 449.424 356.027 450.25 356.16C451.077 356.267 452.237 356.387 453.73 356.52C456.397 356.707 458.304 357.32 459.45 358.36C460.597 359.4 461.17 360.76 461.17 362.44C461.17 363.587 460.85 364.68 460.21 365.72C459.597 366.76 458.637 367.613 457.33 368.28C456.05 368.947 454.397 369.28 452.37 369.28C450.584 369.28 448.997 369.04 447.61 368.56C446.224 368.107 445.144 367.4 444.37 366.44C443.597 365.507 443.21 364.32 443.21 362.88C443.21 362.133 443.41 361.32 443.81 360.44C444.21 359.587 444.957 358.773 446.05 358C445.464 357.76 444.957 357.507 444.53 357.24C444.13 356.947 443.757 356.627 443.41 356.28V355.36L446.81 352C445.237 350.667 444.45 348.907 444.45 346.72C444.45 345.413 444.757 344.227 445.37 343.16C445.984 342.093 446.877 341.253 448.05 340.64C449.224 340 450.65 339.68 452.33 339.68C453.477 339.68 454.517 339.84 455.45 340.16H462.77V342.68L459.05 342.84C459.824 343.96 460.21 345.253 460.21 346.72C460.21 348.027 459.89 349.213 459.25 350.28C458.637 351.347 457.744 352.2 456.57 352.84C455.424 353.453 454.01 353.76 452.33 353.76ZM452.33 351C453.744 351 454.864 350.64 455.69 349.92C456.544 349.173 456.97 348.107 456.97 346.72C456.97 345.36 456.544 344.32 455.69 343.6C454.864 342.853 453.744 342.48 452.33 342.48C450.89 342.48 449.744 342.853 448.89 343.6C448.064 344.32 447.65 345.36 447.65 346.72C447.65 348.107 448.064 349.173 448.89 349.92C449.744 350.64 450.89 351 452.33 351ZM446.49 362.56C446.49 363.893 447.05 364.88 448.17 365.52C449.29 366.187 450.69 366.52 452.37 366.52C454.024 366.52 455.344 366.16 456.33 365.44C457.344 364.72 457.85 363.76 457.85 362.56C457.85 361.707 457.504 360.96 456.81 360.32C456.117 359.707 454.837 359.347 452.97 359.24C451.504 359.133 450.237 359 449.17 358.84C448.077 359.427 447.357 360.053 447.01 360.72C446.664 361.413 446.49 362.027 446.49 362.56ZM466.561 360V331.2H469.921V360H466.561ZM484.348 360.48C482.455 360.48 480.775 360.053 479.308 359.2C477.841 358.32 476.681 357.107 475.828 355.56C475.001 354.013 474.588 352.187 474.588 350.08C474.588 348 475.001 346.187 475.828 344.64C476.655 343.067 477.801 341.853 479.268 341C480.761 340.12 482.481 339.68 484.428 339.68C486.348 339.68 488.001 340.12 489.388 341C490.801 341.853 491.881 342.987 492.628 344.4C493.375 345.813 493.748 347.333 493.748 348.96C493.748 349.253 493.735 349.547 493.708 349.84C493.708 350.133 493.708 350.467 493.708 350.84H477.908C477.988 352.36 478.335 353.627 478.948 354.64C479.588 355.627 480.375 356.373 481.308 356.88C482.268 357.387 483.281 357.64 484.348 357.64C485.735 357.64 486.895 357.32 487.828 356.68C488.761 356.04 489.441 355.173 489.868 354.08H493.188C492.655 355.92 491.628 357.453 490.108 358.68C488.615 359.88 486.695 360.48 484.348 360.48ZM484.348 342.52C482.748 342.52 481.321 343.013 480.068 344C478.841 344.96 478.135 346.373 477.948 348.24H490.428C490.348 346.453 489.735 345.053 488.588 344.04C487.441 343.027 486.028 342.52 484.348 342.52ZM508.987 360V332H526.027V334.76H512.347V344.6H523.987V347.32H512.347V360H508.987ZM538.335 360.48C536.468 360.48 534.788 360.053 533.295 359.2C531.802 358.347 530.615 357.147 529.735 355.6C528.882 354.027 528.455 352.187 528.455 350.08C528.455 347.973 528.895 346.147 529.775 344.6C530.655 343.027 531.842 341.813 533.335 340.96C534.855 340.107 536.548 339.68 538.415 339.68C540.282 339.68 541.962 340.107 543.455 340.96C544.948 341.813 546.122 343.027 546.975 344.6C547.855 346.147 548.295 347.973 548.295 350.08C548.295 352.187 547.855 354.027 546.975 355.6C546.095 357.147 544.895 358.347 543.375 359.2C541.882 360.053 540.202 360.48 538.335 360.48ZM538.335 357.6C539.482 357.6 540.548 357.32 541.535 356.76C542.522 356.2 543.322 355.36 543.935 354.24C544.548 353.12 544.855 351.733 544.855 350.08C544.855 348.427 544.548 347.04 543.935 345.92C543.348 344.8 542.562 343.96 541.575 343.4C540.588 342.84 539.535 342.56 538.415 342.56C537.268 342.56 536.202 342.84 535.215 343.4C534.228 343.96 533.428 344.8 532.815 345.92C532.202 347.04 531.895 348.427 531.895 350.08C531.895 351.733 532.202 353.12 532.815 354.24C533.428 355.36 534.215 356.2 535.175 356.76C536.162 357.32 537.215 357.6 538.335 357.6ZM552.967 360V340.16H556.007L556.207 343.72C556.847 342.467 557.767 341.48 558.967 340.76C560.167 340.04 561.527 339.68 563.047 339.68C565.394 339.68 567.26 340.4 568.647 341.84C570.06 343.253 570.767 345.44 570.767 348.4V360H567.407V348.76C567.407 344.627 565.7 342.56 562.287 342.56C560.58 342.56 559.154 343.187 558.007 344.44C556.887 345.667 556.327 347.427 556.327 349.72V360H552.967ZM583.698 360C581.884 360 580.458 359.56 579.418 358.68C578.378 357.8 577.858 356.213 577.858 353.92V343H574.418V340.16H577.858L578.298 335.4H581.218V340.16H587.058V343H581.218V353.92C581.218 355.173 581.471 356.027 581.978 356.48C582.484 356.907 583.378 357.12 584.658 357.12H586.738V360H583.698ZM598.926 360.48C596.553 360.48 594.58 359.88 593.006 358.68C591.433 357.48 590.513 355.853 590.246 353.8H593.686C593.9 354.84 594.446 355.747 595.326 356.52C596.233 357.267 597.446 357.64 598.966 357.64C600.38 357.64 601.42 357.347 602.086 356.76C602.753 356.147 603.086 355.427 603.086 354.6C603.086 353.4 602.646 352.6 601.766 352.2C600.913 351.8 599.7 351.44 598.126 351.12C597.06 350.907 595.993 350.6 594.926 350.2C593.86 349.8 592.966 349.24 592.246 348.52C591.526 347.773 591.166 346.8 591.166 345.6C591.166 343.867 591.806 342.453 593.086 341.36C594.393 340.24 596.153 339.68 598.366 339.68C600.473 339.68 602.193 340.213 603.526 341.28C604.886 342.32 605.673 343.813 605.886 345.76H602.566C602.433 344.747 601.993 343.96 601.246 343.4C600.526 342.813 599.553 342.52 598.326 342.52C597.126 342.52 596.193 342.773 595.526 343.28C594.886 343.787 594.566 344.453 594.566 345.28C594.566 346.08 594.98 346.707 595.806 347.16C596.66 347.613 597.806 348 599.246 348.32C600.473 348.587 601.633 348.92 602.726 349.32C603.846 349.693 604.753 350.267 605.446 351.04C606.166 351.787 606.526 352.88 606.526 354.32C606.553 356.107 605.873 357.587 604.486 358.76C603.126 359.907 601.273 360.48 598.926 360.48ZM621.912 360V340.16H624.952L625.192 343.04C625.832 341.973 626.686 341.147 627.752 340.56C628.819 339.973 630.019 339.68 631.352 339.68C632.926 339.68 634.272 340 635.392 340.64C636.539 341.28 637.419 342.253 638.032 343.56C638.726 342.36 639.672 341.413 640.872 340.72C642.099 340.027 643.419 339.68 644.832 339.68C647.206 339.68 649.099 340.4 650.512 341.84C651.926 343.253 652.632 345.44 652.632 348.4V360H649.312V348.76C649.312 346.707 648.899 345.16 648.072 344.12C647.246 343.08 646.059 342.56 644.512 342.56C642.912 342.56 641.579 343.187 640.512 344.44C639.472 345.667 638.952 347.427 638.952 349.72V360H635.592V348.76C635.592 346.707 635.179 345.16 634.352 344.12C633.526 343.08 632.339 342.56 630.792 342.56C629.219 342.56 627.899 343.187 626.832 344.44C625.792 345.667 625.272 347.427 625.272 349.72V360H621.912ZM666.734 360.48C664.867 360.48 663.187 360.053 661.694 359.2C660.2 358.347 659.014 357.147 658.134 355.6C657.28 354.027 656.854 352.187 656.854 350.08C656.854 347.973 657.294 346.147 658.174 344.6C659.054 343.027 660.24 341.813 661.734 340.96C663.254 340.107 664.947 339.68 666.814 339.68C668.68 339.68 670.36 340.107 671.854 340.96C673.347 341.813 674.52 343.027 675.374 344.6C676.254 346.147 676.694 347.973 676.694 350.08C676.694 352.187 676.254 354.027 675.374 355.6C674.494 357.147 673.294 358.347 671.774 359.2C670.28 360.053 668.6 360.48 666.734 360.48ZM666.734 357.6C667.88 357.6 668.947 357.32 669.934 356.76C670.92 356.2 671.72 355.36 672.334 354.24C672.947 353.12 673.254 351.733 673.254 350.08C673.254 348.427 672.947 347.04 672.334 345.92C671.747 344.8 670.96 343.96 669.974 343.4C668.987 342.84 667.934 342.56 666.814 342.56C665.667 342.56 664.6 342.84 663.614 343.4C662.627 343.96 661.827 344.8 661.214 345.92C660.6 347.04 660.294 348.427 660.294 350.08C660.294 351.733 660.6 353.12 661.214 354.24C661.827 355.36 662.614 356.2 663.574 356.76C664.56 357.32 665.614 357.6 666.734 357.6ZM690.365 360.48C688.392 360.48 686.659 360.027 685.165 359.12C683.699 358.213 682.552 356.973 681.725 355.4C680.925 353.827 680.525 352.04 680.525 350.04C680.525 348.04 680.939 346.267 681.765 344.72C682.592 343.147 683.739 341.92 685.205 341.04C686.672 340.133 688.405 339.68 690.405 339.68C692.032 339.68 693.472 340.013 694.725 340.68C695.979 341.347 696.952 342.28 697.645 343.48V331.2H701.005V360H697.965L697.645 356.72C697.005 357.68 696.085 358.547 694.885 359.32C693.685 360.093 692.179 360.48 690.365 360.48ZM690.725 357.56C692.059 357.56 693.232 357.253 694.245 356.64C695.285 356 696.085 355.12 696.645 354C697.232 352.88 697.525 351.573 697.525 350.08C697.525 348.587 697.232 347.28 696.645 346.16C696.085 345.04 695.285 344.173 694.245 343.56C693.232 342.92 692.059 342.6 690.725 342.6C689.419 342.6 688.245 342.92 687.205 343.56C686.192 344.173 685.392 345.04 684.805 346.16C684.245 347.28 683.965 348.587 683.965 350.08C683.965 351.573 684.245 352.88 684.805 354C685.392 355.12 686.192 356 687.205 356.64C688.245 357.253 689.419 357.56 690.725 357.56ZM713.723 360.48C711.376 360.48 709.509 359.773 708.123 358.36C706.736 356.92 706.043 354.72 706.043 351.76V340.16H709.403V351.4C709.403 355.533 711.096 357.6 714.483 357.6C716.216 357.6 717.643 356.987 718.763 355.76C719.909 354.507 720.483 352.733 720.483 350.44V340.16H723.843V360H720.803L720.563 356.44C719.949 357.693 719.029 358.68 717.803 359.4C716.603 360.12 715.243 360.48 713.723 360.48ZM729.373 360V331.2H732.733V360H729.373ZM747.16 360.48C745.267 360.48 743.587 360.053 742.12 359.2C740.654 358.32 739.494 357.107 738.64 355.56C737.814 354.013 737.4 352.187 737.4 350.08C737.4 348 737.814 346.187 738.64 344.64C739.467 343.067 740.614 341.853 742.08 341C743.574 340.12 745.294 339.68 747.24 339.68C749.16 339.68 750.814 340.12 752.2 341C753.614 341.853 754.694 342.987 755.44 344.4C756.187 345.813 756.56 347.333 756.56 348.96C756.56 349.253 756.547 349.547 756.52 349.84C756.52 350.133 756.52 350.467 756.52 350.84H740.72C740.8 352.36 741.147 353.627 741.76 354.64C742.4 355.627 743.187 356.373 744.12 356.88C745.08 357.387 746.094 357.64 747.16 357.64C748.547 357.64 749.707 357.32 750.64 356.68C751.574 356.04 752.254 355.173 752.68 354.08H756C755.467 355.92 754.44 357.453 752.92 358.68C751.427 359.88 749.507 360.48 747.16 360.48ZM747.16 342.52C745.56 342.52 744.134 343.013 742.88 344C741.654 344.96 740.947 346.373 740.76 348.24H753.24C753.16 346.453 752.547 345.053 751.4 344.04C750.254 343.027 748.84 342.52 747.16 342.52ZM772.68 360V343H769.68V340.16H772.68V336.72C772.68 334.8 773.16 333.4 774.12 332.52C775.08 331.64 776.48 331.2 778.32 331.2H780.32V334.08H778.84C777.827 334.08 777.107 334.293 776.68 334.72C776.253 335.12 776.04 335.813 776.04 336.8V340.16H780.92V343H776.04V360H772.68ZM793.179 360.48C791.312 360.48 789.632 360.053 788.139 359.2C786.646 358.347 785.459 357.147 784.579 355.6C783.726 354.027 783.299 352.187 783.299 350.08C783.299 347.973 783.739 346.147 784.619 344.6C785.499 343.027 786.686 341.813 788.179 340.96C789.699 340.107 791.392 339.68 793.259 339.68C795.126 339.68 796.806 340.107 798.299 340.96C799.792 341.813 800.966 343.027 801.819 344.6C802.699 346.147 803.139 347.973 803.139 350.08C803.139 352.187 802.699 354.027 801.819 355.6C800.939 357.147 799.739 358.347 798.219 359.2C796.726 360.053 795.046 360.48 793.179 360.48ZM793.179 357.6C794.326 357.6 795.392 357.32 796.379 356.76C797.366 356.2 798.166 355.36 798.779 354.24C799.392 353.12 799.699 351.733 799.699 350.08C799.699 348.427 799.392 347.04 798.779 345.92C798.192 344.8 797.406 343.96 796.419 343.4C795.432 342.84 794.379 342.56 793.259 342.56C792.112 342.56 791.046 342.84 790.059 343.4C789.072 343.96 788.272 344.8 787.659 345.92C787.046 347.04 786.739 348.427 786.739 350.08C786.739 351.733 787.046 353.12 787.659 354.24C788.272 355.36 789.059 356.2 790.019 356.76C791.006 357.32 792.059 357.6 793.179 357.6ZM807.811 360V340.16H810.851L811.131 343.96C811.744 342.653 812.677 341.613 813.931 340.84C815.184 340.067 816.731 339.68 818.571 339.68V343.2H817.651C816.477 343.2 815.397 343.413 814.411 343.84C813.424 344.24 812.637 344.933 812.051 345.92C811.464 346.907 811.171 348.267 811.171 350V360H807.811ZM833.128 360V332H836.488L851.408 354.44V332H854.768V360H851.408L836.488 337.56V360H833.128ZM867.746 360.48C865.399 360.48 863.533 359.773 862.146 358.36C860.759 356.92 860.066 354.72 860.066 351.76V340.16H863.426V351.4C863.426 355.533 865.119 357.6 868.506 357.6C870.239 357.6 871.666 356.987 872.786 355.76C873.933 354.507 874.506 352.733 874.506 350.44V340.16H877.866V360H874.826L874.586 356.44C873.973 357.693 873.053 358.68 871.826 359.4C870.626 360.12 869.266 360.48 867.746 360.48ZM881.397 360L888.277 350.08L881.397 340.16H885.037L890.597 348.36L896.197 340.16H899.797L892.917 350.08L899.797 360H896.197L890.597 351.8L885.037 360H881.397ZM911.159 360C909.345 360 907.919 359.56 906.879 358.68C905.839 357.8 905.319 356.213 905.319 353.92V343H901.879V340.16H905.319L905.759 335.4H908.679V340.16H914.519V343H908.679V353.92C908.679 355.173 908.932 356.027 909.439 356.48C909.945 356.907 910.839 357.12 912.119 357.12H914.199V360H911.159Z" fill="white"/>
</g>
<defs>
<filter id="filter0_i" x="366.853" y="331.2" width="547.666" height="42.08" filterUnits="userSpaceOnUse" color-interpolation-filters="sRGB">
<feFlood flood-opacity="0" result="BackgroundImageFix"/>
<feBlend mode="normal" in="SourceGraphic" in2="BackgroundImageFix" result="shape"/>
<feColorMatrix in="SourceAlpha" type="matrix" values="0 0 0 0 0 0 0 0 0 0 0 0 0 0 0 0 0 0 127 0" result="hardAlpha"/>
<feOffset dy="4"/>
<feGaussianBlur stdDeviation="2"/>
<feComposite in2="hardAlpha" operator="arithmetic" k2="-1" k3="1"/>
<feColorMatrix type="matrix" values="0 0 0 0 0 0 0 0 0 0 0 0 0 0 0 0 0 0 0.15 0"/>
<feBlend mode="normal" in2="shape" result="effect1_innerShadow"/>
</filter>
<clipPath id="clip0">
<rect width="80" height="62.7027" fill="white" transform="translate(50 50)"/>
</clipPath>
<clipPath id="clip1">
<rect width="80" height="62.7027" fill="white" transform="translate(1150 527)"/>
</clipPath>
</defs>
</svg>
